# Blender v2.79 (sub 0) OBJ File: 'smoke.blend'
# www.blender.org
mtllib smoke.mtl
o Plane
v -0.000000 0.858843 -0.045150
v 0.000000 0.000000 1.000000
v 0.000000 -1.000000 0.000000
v 0.000000 0.000000 -0.873420
v 0.000000 0.000000 0.000000
v -0.000000 0.764158 0.268936
v 0.000000 -0.500000 1.000000
v 0.000000 -0.805007 -0.335341
v -0.000000 0.500000 -0.781171
v -0.000000 0.847615 -0.412628
v -0.000000 0.308830 0.812678
v 0.000000 -0.976053 0.500000
v 0.000000 -0.316916 -0.800403
v 0.000000 0.000000 -0.500000
v 0.000000 0.000000 0.500000
v -0.000000 0.500000 0.000000
v 0.000000 -0.500000 0.000000
v 0.000000 -0.500000 0.500000
v -0.000000 0.500000 0.500000
v -0.000000 0.500000 -0.500000
v 0.000000 -0.500000 -0.500000
v 0.000000 -0.664848 0.930787
v -0.000000 0.967571 -0.250000
v -0.000000 0.185096 0.911104
v 0.000000 -1.000000 0.250000
v 0.000000 -0.250000 -0.878282
v 0.000000 0.000000 -0.750000
v 0.000000 0.000000 0.250000
v -0.000000 0.750000 0.000000
v 0.000000 -0.250000 0.000000
v -0.000000 0.813784 0.125168
v 0.000000 -0.250000 1.000000
v 0.000000 -0.885922 -0.165856
v -0.000000 0.250000 -0.917967
v -0.000000 0.797857 -0.485201
v 0.000000 -0.911550 0.738895
v 0.000000 0.000000 -0.250000
v 0.000000 0.000000 0.750000
v -0.000000 0.250000 0.000000
v 0.000000 -0.750000 0.000000
v 0.000000 -0.500000 0.250000
v 0.000000 -0.500000 0.750000
v 0.000000 -0.250000 0.500000
v 0.000000 -0.750000 0.500000
v -0.000000 0.500000 0.250000
v -0.000000 0.462861 0.668748
v -0.000000 0.707137 0.472650
v -0.000000 0.250000 0.500000
v -0.000000 0.500000 -0.734869
v -0.000000 0.500000 -0.250000
v -0.000000 0.750000 -0.484574
v -0.000000 0.250000 -0.500000
v 0.000000 -0.451422 -0.675857
v 0.000000 -0.500000 -0.250000
v 0.000000 -0.250000 -0.500000
v 0.000000 -0.691977 -0.424833
v 0.000000 -0.750000 -0.250000
v 0.000000 -0.250000 -0.250000
v 0.000000 -0.250000 -0.750000
v -0.000000 0.250000 -0.250000
v -0.000000 0.750000 -0.250000
v -0.000000 0.648145 -0.623849
v -0.000000 0.250000 0.750000
v -0.000000 0.543769 0.579726
v -0.000000 0.750000 0.250000
v 0.000000 -0.750000 0.750000
v 0.000000 -0.250000 0.750000
v 0.000000 -0.250000 0.250000
v 0.000000 -0.750000 0.250000
v -0.000000 0.250000 0.250000
v -0.000000 0.250000 -0.750000
v 0.000000 -0.633108 -0.598219
vt 0.334121 0.231637
vt 0.267844 0.295206
vt 0.229515 0.268415
vt 0.281959 0.195176
vt 0.644672 0.448709
vt 0.578394 0.512278
vt 0.500756 0.458010
vt 0.567034 0.394441
vt 0.379560 0.702986
vt 0.313282 0.766555
vt 0.235645 0.712287
vt 0.301923 0.648718
vt 0.512116 0.575848
vt 0.445838 0.639417
vt 0.368200 0.585149
vt 0.434478 0.521580
vt 0.667391 0.684384
vt 0.601113 0.747953
vt 0.523476 0.693685
vt 0.589754 0.630116
vt 0.534835 0.811522
vt 0.488558 0.850190
vt 0.397268 0.814734
vt 0.457198 0.757254
vt 0.777228 0.321570
vt 0.710950 0.385140
vt 0.633312 0.330872
vt 0.699590 0.267302
vt 0.824950 0.445585
vt 0.831146 0.485482
vt 0.788587 0.439408
vt 0.835008 0.380801
vt 0.799947 0.557245
vt 0.733669 0.620814
vt 0.656032 0.566546
vt 0.722309 0.502977
vt 0.621953 0.213034
vt 0.555675 0.276604
vt 0.478037 0.222336
vt 0.549106 0.162115
vt 0.489397 0.340173
vt 0.423119 0.403742
vt 0.345481 0.349474
vt 0.411759 0.285905
vt 0.201566 0.358775
vt 0.171191 0.426087
vt 0.168173 0.364850
vt 0.161728 0.330929
vt 0.356841 0.467311
vt 0.290563 0.530881
vt 0.212925 0.476613
vt 0.279203 0.413043
vt 0.224285 0.594450
vt 0.214381 0.647277
vt 0.183199 0.589912
vt 0.185373 0.541745
vt 0.679633 0.157711
vt 0.597327 0.152911
vt 0.714424 0.229825
vt 0.493495 0.168018
vt 0.561598 0.149810
vt 0.405098 0.171352
vt 0.835008 0.555892
vt 0.832771 0.608720
vt 0.811307 0.675082
vt 0.755371 0.278254
vt 0.786862 0.322081
vt 0.678751 0.802221
vt 0.613554 0.829114
vt 0.745029 0.738652
vt 0.390719 0.161301
vt 0.147135 0.489138
vn 1.0000 0.0000 0.0000
usemtl None
s off
f 71/1/1 27/2/1 4/3/1 34/4/1
f 70/5/1 28/6/1 5/7/1 39/8/1
f 69/9/1 25/10/1 3/11/1 40/12/1
f 68/13/1 41/14/1 17/15/1 30/16/1
f 67/17/1 42/18/1 18/19/1 43/20/1
f 66/21/1 36/22/1 12/23/1 44/24/1
f 65/25/1 45/26/1 16/27/1 29/28/1
f 64/29/1 46/30/1 19/31/1 47/32/1
f 63/33/1 38/34/1 15/35/1 48/36/1
f 61/37/1 50/38/1 20/39/1 51/40/1
f 60/41/1 37/42/1 14/43/1 52/44/1
f 59/45/1 53/46/1 13/47/1 26/48/1
f 58/49/1 54/50/1 21/51/1 55/52/1
f 57/53/1 33/54/1 8/55/1 56/56/1
f 54/50/1 57/53/1 56/56/1 21/51/1
f 17/15/1 40/12/1 57/53/1 54/50/1
f 40/12/1 3/11/1 33/54/1 57/53/1
f 37/42/1 58/49/1 55/52/1 14/43/1
f 5/7/1 30/16/1 58/49/1 37/42/1
f 30/16/1 17/15/1 54/50/1 58/49/1
f 27/2/1 59/45/1 26/48/1 4/3/1
f 14/43/1 55/52/1 59/45/1 27/2/1
f 55/52/1 21/51/1 53/46/1 59/45/1
f 50/38/1 60/41/1 52/44/1 20/39/1
f 16/27/1 39/8/1 60/41/1 50/38/1
f 39/8/1 5/7/1 37/42/1 60/41/1
f 23/57/1 61/37/1 51/40/1 10/58/1
f 1/59/1 29/28/1 61/37/1 23/57/1
f 29/28/1 16/27/1 50/38/1 61/37/1
f 10/58/1 51/40/1 62/60/1 35/61/1
f 51/40/1 20/39/1 49/62/1 62/60/1
f 46/30/1 63/33/1 48/36/1 19/31/1
f 11/63/1 24/64/1 63/33/1 46/30/1
f 24/64/1 2/65/1 38/34/1 63/33/1
f 31/66/1 65/25/1 29/28/1 1/59/1
f 6/67/1 47/32/1 65/25/1 31/66/1
f 47/32/1 19/31/1 45/26/1 65/25/1
f 42/18/1 66/21/1 44/24/1 18/19/1
f 7/68/1 22/69/1 66/21/1 42/18/1
f 38/34/1 67/17/1 43/20/1 15/35/1
f 2/65/1 32/70/1 67/17/1 38/34/1
f 32/70/1 7/68/1 42/18/1 67/17/1
f 28/6/1 68/13/1 30/16/1 5/7/1
f 15/35/1 43/20/1 68/13/1 28/6/1
f 43/20/1 18/19/1 41/14/1 68/13/1
f 41/14/1 69/9/1 40/12/1 17/15/1
f 18/19/1 44/24/1 69/9/1 41/14/1
f 44/24/1 12/23/1 25/10/1 69/9/1
f 45/26/1 70/5/1 39/8/1 16/27/1
f 19/31/1 48/36/1 70/5/1 45/26/1
f 48/36/1 15/35/1 28/6/1 70/5/1
f 49/62/1 71/1/1 34/4/1 9/71/1
f 20/39/1 52/44/1 71/1/1 49/62/1
f 52/44/1 14/43/1 27/2/1 71/1/1
f 21/51/1 56/56/1 72/72/1 53/46/1
